# xmcd
#
# Track frame offsets:
#  150
#  9385
#  20204
#  30465
#  38354
#  47201
#  55218
#  66197
#  76440
#  84298
#  93484
#  103120
#  128610
#  138287
#  151056
#  156807
#  165857
#  176501
#
# Disc length: 2745 seconds
#
# Revision: 0
# Processed by: cddbd v1.4PL0 Copyright (c) Steve Scherf et al.
# Submitted via: AltoMP3_Maker 3.0
#
DISCID=cf0ab712
DTITLE=Ralph Stanley - Songs My Mother Taught Me and More
DYEAR=1900
DGENRE=
TTITLE0=Dixie Land
TTITLE1=She'll Be Comin' Round The Mountain
TTITLE2=Uncloudy Day
TTITLE3=Blue Eyed Verdie
TTITLE4=Cripple Creek
TTITLE5=Shout Little Luly
TTITLE6=Will The Circle Be Unbroken
TTITLE7=John Henry
TTITLE8=Little Birdie
TTITLE9=Cindy
TTITLE10=Me And My Buddy
TTITLE11=Medley - I Got A Mule, Rocky Island and Shout Little Luly
TTITLE12=Little Birdie
TTITLE13=The Farmer's Girl
TTITLE14=Old Time Pickin'
TTITLE15=Rocky Island
TTITLE16=Blue Eyed Verdie
TTITLE17=Interview and Medley - Shout Little Luly, Little Birdie, Little Birdie, Little Maggie and Little Maggie
EXTD=
EXTT0=
EXTT1=
EXTT2=
EXTT3=
EXTT4=
EXTT5=
EXTT6=
EXTT7=
EXTT8=
EXTT9=
EXTT10=
EXTT11=
EXTT12=
EXTT13=
EXTT14=
EXTT15=
EXTT16=
EXTT17=
PLAYORDER=
